<?xml version="1.0" encoding="UTF-8" standalone="no"?>
<!-- Created with Inkscape (http://www.inkscape.org/) -->

<svg
   width="50"
   height="50"
   viewBox="0 0 50 50"
   version="1.1"
   id="svg1"
   inkscape:export-filename="catghost.svg"
   inkscape:export-xdpi="50"
   inkscape:export-ydpi="50"
   inkscape:version="1.4.2 (2aeb623e1d, 2025-05-12)"
   sodipodi:docname="chat-ghost-icon.svg"
   xmlns:inkscape="http://www.inkscape.org/namespaces/inkscape"
   xmlns:sodipodi="http://sodipodi.sourceforge.net/DTD/sodipodi-0.dtd"
   xmlns="http://www.w3.org/2000/svg"
   xmlns:svg="http://www.w3.org/2000/svg">
  <sodipodi:namedview
     id="namedview1"
     pagecolor="#ffffff"
     bordercolor="#000000"
     borderopacity="0.25"
     inkscape:showpageshadow="2"
     inkscape:pageopacity="0.0"
     inkscape:pagecheckerboard="0"
     inkscape:deskcolor="#d1d1d1"
     inkscape:document-units="px"
     inkscape:zoom="12.323032"
     inkscape:cx="45.524511"
     inkscape:cy="25.115572"
     inkscape:window-width="1854"
     inkscape:window-height="1003"
     inkscape:window-x="0"
     inkscape:window-y="0"
     inkscape:window-maximized="1"
     inkscape:current-layer="layer1" />
  <defs
     id="defs1" />
  <g
     inkscape:label="Layer 1"
     inkscape:groupmode="layer"
     id="layer1">
    <path
       style="display:inline;fill:#000000;stroke-width:0.0652495"
       d="m 18.227794,49.465998 c -0.118848,-0.0086 -1.010204,-0.03964 -1.980788,-0.06897 -1.591937,-0.04812 -2.612506,-0.123471 -4.052951,-0.299213 -0.268149,-0.03271 -0.576135,-0.05949 -0.684431,-0.05949 -0.349217,0 -1.6137803,-0.329416 -2.4917919,-0.649105 C 7.9591587,48.003745 6.8392341,47.479622 6.2750601,47.105604 5.305826,46.463045 4.2167736,45.039032 3.7623928,43.8201 3.5243292,43.181465 3.4993297,43.043826 3.4565148,42.136009 l -0.046627,-0.988617 0.2318484,-0.59108 c 0.2606423,-0.66449 0.8063702,-1.460277 1.1919174,-1.738069 0.3249813,-0.234152 0.6797535,-0.245361 1.0597255,-0.03349 0.4342529,0.242149 0.5329019,0.468673 0.6296938,1.445926 0.1178246,1.189618 0.7122253,3.24988 1.1341806,3.931214 0.2485662,0.401361 0.6236391,0.805289 0.9062852,0.976015 0.4094535,0.247321 1.7603413,0.590472 2.3225093,0.589965 0.607677,-5.91e-4 2.352769,-0.224073 2.427361,-0.310909 0.0942,-0.109693 -7.85e-4,-3.955885 -0.124487,-5.037988 -0.05944,-0.520151 -0.108777,-0.992278 -0.109628,-1.049169 -8.64e-4,-0.05689 -0.02885,-0.103439 -0.06222,-0.103439 -0.03336,0 -0.349382,0.279649 -0.70228,0.621442 -0.704297,0.682146 -1.391162,1.534502 -1.585338,1.967316 -0.178869,0.398674 -0.359676,0.543971 -0.676933,0.543971 -0.5342883,0 -0.7356908,-0.437144 -0.4225054,-0.917051 0.3136758,-0.480658 1.1683334,-1.404135 1.9184484,-2.072918 0.425128,-0.379038 0.900187,-0.808636 1.055689,-0.954663 l 0.282722,-0.265504 -0.08978,-0.540019 c -0.04937,-0.29701 -0.152292,-0.842698 -0.228708,-1.21264 -0.07641,-0.369943 -0.138928,-0.682477 -0.138928,-0.69452 0,-0.08154 -0.24484,0.0432 -0.998197,0.508587 -1.097457,0.677951 -1.8890572,1.290537 -2.654332,2.054083 -0.3755904,0.374741 -0.6775738,0.621579 -0.7883594,0.644395 -0.3847539,0.07924 -0.678468,-0.189945 -0.5752991,-0.527266 0.060015,-0.196235 1.9024268,-1.656646 2.7556535,-2.184308 0.40076,-0.247842 1.016606,-0.603669 1.368544,-0.790724 0.351942,-0.187056 0.658705,-0.362594 0.681702,-0.390084 0.07563,-0.0904 -0.612928,-2.823958 -0.711334,-2.823958 -0.02375,0 -0.48247,0.169928 -1.019365,0.377618 -0.5368969,0.20769 -1.332718,0.497568 -1.768492,0.644172 -0.435774,0.146604 -1.0344982,0.362356 -1.3304995,0.47945 -0.2959998,0.117091 -0.639416,0.212894 -0.7631446,0.212894 -0.3998377,0 -0.6093548,-0.346131 -0.3335168,-0.550982 0.2165671,-0.160833 1.5897166,-0.665251 2.3551321,-0.865143 0.6020646,-0.157232 1.9007368,-0.551924 2.5390118,-0.771656 0.08914,-0.03069 0.162064,-0.07861 0.162064,-0.1065 0,-0.106122 -1.023283,-3.11493 -1.5113999,-4.44404 C 9.0212281,24.945282 6.681709,19.347355 5.7401425,17.363952 5.4566083,16.766689 5.1493993,16.204657 5.0574562,16.11499 4.965514,16.025319 4.8332701,15.782528 4.7635827,15.575448 4.6938933,15.368369 4.4635062,14.826559 4.2516066,14.371427 4.0397071,13.916294 3.6893062,13.131635 3.4729379,12.627738 3.2565681,12.123841 2.8886008,11.352481 2.6552297,10.913603 L 2.2309194,10.115645 2.2173741,9.4550919 2.2038289,8.7945404 2.4343919,8.6353351 C 2.646172,8.4890997 2.7032845,8.478512 3.1354558,8.5053643 c 0.9944771,0.061787 1.8145103,0.3748161 3.4821624,1.3292217 0.9013041,0.515823 1.2825497,0.838378 2.0344474,1.721266 0.7577509,0.889762 1.9046624,2.325619 1.9046624,2.384514 0,0.109874 0.205563,0.03165 0.436047,-0.165925 0.136523,-0.11703 0.556149,-0.39296 0.932498,-0.613178 0.37635,-0.220215 0.911163,-0.570511 1.188474,-0.778431 0.27731,-0.207921 0.617647,-0.446454 0.756302,-0.530075 0.413135,-0.249152 2.090872,-1.088241 2.571252,-1.285964 0.245525,-0.101056 0.647481,-0.290384 0.89323,-0.420727 0.730602,-0.3875039 1.859766,-0.811939 2.513904,-0.9449335 0.336733,-0.068471 0.839134,-0.1883183 1.116445,-0.2663459 0.671206,-0.1888601 2.067634,-0.5034934 2.239667,-0.5046277 0.32292,-0.00209 0.352172,-0.082246 0.175808,-0.4815189 C 23.135543,7.394417 22.558184,6.4744147 22.013877,5.7711996 21.749661,5.4298511 21.425935,4.9954048 21.294481,4.8057652 21.004849,4.3879262 20.171445,3.5523154 19.138526,2.6440931 18.716855,2.2733266 18.315339,1.9009458 18.246269,1.8165796 18.055933,1.5840849 18.081483,1.3022853 18.303719,1.1827885 c 0.175807,-0.094528 0.216595,-0.090662 0.918366,0.087117 0.403913,0.1023214 0.932124,0.2227316 1.173801,0.2675791 0.440888,0.081818 1.060869,0.2903759 2.332717,0.7847145 0.803587,0.3123375 1.212443,0.5070951 2.521984,1.2013458 0.534813,0.28353 1.198076,0.6326059 1.47391,0.7757247 1.20671,0.6261073 2.651089,1.6537954 4.72056,3.3587379 2.028185,1.6709257 2.823187,2.4014985 3.634383,3.3398665 1.319106,1.525899 2.96499,4.014483 3.794885,5.737875 0.156546,0.325094 0.474755,0.923564 0.707138,1.329932 0.624465,1.092053 1.403151,2.51579 1.624769,2.970708 0.107043,0.219728 0.221176,0.412974 0.253638,0.429437 0.08709,0.04417 0.992623,-1.111411 1.288295,-1.644068 0.186877,-0.336658 0.299693,-0.469554 0.419559,-0.494241 0.214746,-0.04423 0.378161,0.07269 0.378161,0.270561 0,0.303009 -0.664285,1.307204 -1.45946,2.206261 l -0.35294,0.399053 0.15967,0.398907 c 0.08782,0.219399 0.169586,0.40844 0.181711,0.420087 0.01209,0.01165 0.420996,-0.164257 0.908595,-0.390903 1.924029,-0.894316 3.114335,-1.359121 4.030885,-1.574021 0.811046,-0.190161 1.285438,-0.08575 1.285438,0.282909 0,0.23658 -0.186541,0.390011 -0.474179,0.390011 -0.303291,0 -2.12008,0.528584 -2.839144,0.826033 -0.833535,0.344797 -2.32523,1.040192 -2.505495,1.167999 -0.138288,0.09804 -0.141053,0.120657 -0.04617,0.37658 l 0.100988,0.272274 0.703114,-3.6e-5 c 0.632295,-3.2e-5 0.830072,0.03025 1.963613,0.300757 1.616594,0.385768 1.809117,0.419571 2.723021,0.478102 0.729593,0.04673 0.767945,0.0561 0.963194,0.235424 0.247622,0.227436 0.255774,0.364719 0.03416,0.57616 -0.378279,0.360891 -1.459878,0.225913 -3.878189,-0.483976 -1.230392,-0.361179 -1.878776,-0.491034 -2.101547,-0.420885 -0.08882,0.02798 -0.07893,0.116026 0.06573,0.583588 0.462481,1.4954 0.615758,2.146591 1.068721,4.540436 0.462527,2.444407 0.489115,2.653037 0.527175,4.137567 0.0468,1.825286 -0.0453,2.542622 -0.815575,6.354118 -0.258225,1.27774 -0.85414,2.589554 -1.585217,3.489609 -1.128814,1.389728 -1.91481,2.068878 -2.9981,2.590573 -0.819348,0.394582 -1.328851,0.571924 -2.415662,0.840812 -0.46383,0.114759 -1.118838,0.284906 -1.455573,0.378119 -0.673461,0.186416 -1.27148,0.289108 -2.73709,0.470034 -2.679792,0.330816 -3.511905,0.418233 -4.537811,0.476714 -0.614045,0.03499 -1.699878,0.117619 -2.412961,0.183583 -2.061961,0.190753 -3.641501,0.290053 -5.11404,0.321503 -0.752701,0.01608 -1.530611,0.03528 -1.72869,0.04269 -0.19808,0.0074 -0.457383,0.0065 -0.57623,-0.0022 z m 11.930162,-6.487616 c 1.905319,-0.155497 2.806232,-0.258134 3.61217,-0.411514 0.933354,-0.177631 2.688342,-0.634463 3.185138,-0.829109 0.607339,-0.237955 2.143021,-1.040093 2.461805,-1.285885 0.331681,-0.255731 0.651915,-0.78774 0.738848,-1.227481 0.09175,-0.464066 0.09501,-2.570788 0.0055,-3.426282 -0.03582,-0.341348 -0.117841,-1.245701 -0.182315,-2.009674 -0.151398,-1.793792 -0.549251,-4.191575 -0.796828,-4.802229 -0.102084,-0.251782 -0.34581,-0.659179 -0.54162,-0.90533 -0.290678,-0.365397 -0.416563,-0.469518 -0.685858,-0.567271 -0.453241,-0.164527 -0.740874,-0.111744 -1.112973,0.20424 -0.332996,0.282781 -0.983157,1.342514 -1.214152,1.979014 -0.186411,0.513647 -0.192246,1.157009 -0.03353,3.695693 0.06788,1.085812 0.10109,2.326433 0.08078,3.017255 -0.03083,1.048707 -0.04957,1.189854 -0.176464,1.329931 -0.208278,0.229919 -0.599825,0.246331 -0.80366,0.03368 -0.08525,-0.08894 -0.152319,-0.244877 -0.152319,-0.354145 0,-0.107381 -0.04556,-0.36313 -0.101234,-0.568333 -0.05568,-0.2052 -0.156143,-0.82527 -0.223246,-1.377931 -0.128254,-1.056343 -0.477016,-2.983657 -0.657809,-3.635145 -0.274546,-0.989358 -0.692787,-1.908146 -0.925575,-2.033315 -0.250487,-0.134686 -0.683611,-0.174502 -1.040463,-0.09564 -0.39525,0.08733 -1.043963,0.576467 -1.165886,0.879078 -0.122766,0.30471 -0.112272,0.813386 0.03371,1.634087 0.317698,1.785943 0.355161,2.224994 0.363134,4.255781 0.0078,1.984164 0.0057,2.013179 -0.157801,2.285693 -0.183277,0.305308 -0.471767,0.437878 -0.758332,0.348471 -0.344384,-0.107448 -0.42201,-0.31089 -0.587813,-1.540664 -0.140801,-1.044358 -0.431221,-2.505763 -0.592327,-2.980639 -0.078,-0.22991 -0.242982,-0.483875 -0.479979,-0.738851 -0.552014,-0.59389 -1.208548,-1.211438 -1.335528,-1.256212 -0.182204,-0.06426 -1.066227,-0.05434 -1.405431,0.01575 -0.40815,0.08433 -0.855831,0.464229 -1.308697,1.110524 l -0.346862,0.495014 0.01648,0.834917 c 0.0092,0.459206 0.04593,1.087603 0.08193,1.396443 0.036,0.308841 0.10149,0.947208 0.14552,1.418596 0.04402,0.471386 0.11117,1.069856 0.149193,1.329931 0.03802,0.260076 0.06911,0.741168 0.06904,1.069095 -4.9e-5,0.327928 0.04835,0.8599 0.107523,1.182162 0.0592,0.322263 0.107815,0.78052 0.108046,1.01835 7.23e-4,0.709354 -0.143525,0.661079 1.97515,0.661079 1.420903,0 2.230685,-0.03306 3.652922,-0.149131 z M 25.034949,30.126959 c 0.654432,-0.167968 1.072623,-0.382805 1.654299,-0.84986 0.881903,-0.708116 1.123324,-1.301483 1.062409,-2.611185 -0.04782,-1.02807 -0.356838,-2.20491 -0.88467,-3.369162 -0.221088,-0.487641 -0.448576,-1.010176 -0.505528,-1.161188 -0.16455,-0.436284 -1.010031,-1.737864 -1.568642,-2.41485 -0.705781,-0.855336 -1.605406,-1.581162 -2.673419,-2.156931 -1.242617,-0.669901 -1.809684,-0.845094 -2.969924,-0.917551 -0.85836,-0.0536 -0.959474,-0.04879 -1.352087,0.06445 -0.233387,0.06731 -0.53995,0.171201 -0.681241,0.230857 -0.35209,0.148658 -0.88701,0.582379 -1.103553,0.894776 -0.173236,0.24992 -0.232717,0.384247 -0.553641,1.250225 -0.180007,0.485724 -0.191956,1.080168 -0.03549,1.765471 0.213046,0.933146 0.884974,2.645553 1.465273,3.734223 0.681594,1.278718 2.22944,3.815083 2.572808,4.215904 0.427628,0.49918 0.886055,0.817176 1.30455,0.904921 0.18857,0.03953 0.486288,0.113547 0.66159,0.16446 0.175305,0.05091 0.661497,0.168552 1.080431,0.261418 0.651248,0.144363 0.855759,0.164875 1.410395,0.141459 0.35678,-0.01507 0.85918,-0.08141 1.116444,-0.147441 z m -1.726759,-1.34793 c -0.522648,-0.250462 -2.691065,-1.949441 -3.214305,-2.518443 -0.289195,-0.314487 -0.830194,-1.169323 -1.539052,-2.43186 -0.455653,-0.811558 -0.682674,-1.423895 -1.095707,-2.955405 -0.116277,-0.43116 -0.136273,-0.666387 -0.105509,-1.241268 0.04455,-0.832515 0.129543,-1.11217 0.407244,-1.340052 0.162922,-0.133697 0.26832,-0.167204 0.525961,-0.167204 0.277677,0 0.352609,0.02842 0.542204,0.205614 0.120994,0.113087 0.237875,0.292628 0.259727,0.39898 0.02185,0.106349 0.07375,0.379554 0.115318,0.60712 0.11681,0.639456 0.541837,1.684899 1.081383,2.659864 0.269855,0.487642 0.636345,1.17441 0.814407,1.526153 0.804871,1.589889 2.59843,3.710655 3.601019,4.25797 0.40004,0.218382 0.596303,0.691432 0.407178,0.98142 -0.09681,0.148444 -0.449473,0.238765 -0.932276,0.238765 -0.337814,0 -0.481835,-0.03679 -0.867592,-0.221654 z m 8.208904,-1.942669 v -0.509297 l -0.274269,0.19898 c -0.150852,0.10944 -0.42636,0.284877 -0.612244,0.389861 -0.552814,0.312226 -0.451139,0.396292 0.508363,0.420294 l 0.37815,0.0094 z m 5.283561,-0.837459 c 0.64411,-0.247347 1.076195,-0.591344 1.381439,-1.099812 0.496552,-0.827135 0.573802,-1.775777 0.258043,-3.168701 -0.393545,-1.736026 -1.881801,-4.304936 -3.621966,-6.251936 -0.606417,-0.678492 -1.423259,-1.476528 -1.783027,-1.741969 -0.439908,-0.324567 -1.715926,-0.963084 -2.12626,-1.063974 -0.167568,-0.0412 -0.722153,-0.07237 -1.300551,-0.07308 -0.898025,-0.0011 -1.047196,0.01343 -1.362805,0.13288 -0.568292,0.215068 -1.510067,0.898882 -1.739579,1.263087 -0.165645,0.26287 -0.150167,0.848128 0.03418,1.292208 0.178379,0.429687 0.376596,0.72163 1.444732,2.127891 0.40743,0.536406 1.071881,1.480658 1.476552,2.098337 0.404679,0.617679 0.87644,1.309242 1.048364,1.53681 0.171925,0.227566 0.714735,1.065423 1.206244,1.861903 0.49151,0.796482 0.937174,1.488047 0.990375,1.536811 0.05319,0.04877 0.2325,0.32093 0.398454,0.604816 l 0.301728,0.516154 0.619513,0.277117 c 0.775217,0.346772 0.910861,0.375089 1.681195,0.350967 0.51437,-0.0161 0.707565,-0.05137 1.093366,-0.199513 z M 36.000264,25.375866 C 35.730553,25.252946 35.62645,25.072699 35.54469,24.587063 35.406308,23.765071 35.032054,22.552343 34.604837,21.54155 34.153505,20.4737 33.893489,20.016448 33.034596,18.780235 31.892042,17.13574 31.300064,16.482588 30.495913,15.979212 c -0.912553,-0.571239 -1.211709,-0.829887 -1.211709,-1.04764 0,-0.142622 0.06492,-0.241768 0.254183,-0.388254 0.482765,-0.373632 0.991388,-0.3252 1.98913,0.189413 0.705658,0.363961 1.265942,0.823098 2.336095,1.914363 1.199593,1.223263 1.762982,1.976378 2.014204,2.692508 0.06782,0.193357 0.181871,0.446747 0.253417,0.563087 0.159113,0.25871 0.413078,1.001389 0.709124,2.07373 0.20266,0.734055 0.22295,0.900477 0.22295,1.828467 0,0.902594 -0.01682,1.049417 -0.145116,1.266911 -0.204836,0.347231 -0.562933,0.465854 -0.917927,0.304069 z"
       id="path1"
       inkscape:export-filename="catghost.svg"
       inkscape:export-xdpi="50"
       inkscape:export-ydpi="50" />
    <path
       style="fill:#ffc92a;fill-opacity:1;stroke-width:0.0914003"
       d="m 22.987909,30.193741 c -1.339756,-0.290928 -2.388061,-0.582331 -2.684544,-0.746235 -0.546648,-0.302203 -0.915693,-0.780007 -2.070108,-2.680178 -1.501593,-2.47163 -2.294442,-4.16372 -2.707984,-5.779352 -0.231006,-0.902508 -0.197272,-1.395452 0.157744,-2.304932 0.265832,-0.681007 0.387681,-0.866266 0.811816,-1.23428 0.706955,-0.613414 1.412624,-0.823465 2.538935,-0.755747 0.454496,0.02733 1.053372,0.106058 1.330838,0.174961 1.337874,0.332231 3.431977,1.740865 4.444579,2.989721 1.106966,1.365234 2.231922,3.647573 2.671725,5.420452 0.166609,0.671624 0.207589,1.085953 0.180161,1.821541 -0.03245,0.870579 -0.06105,0.990253 -0.333703,1.396632 -0.396471,0.590934 -1.346279,1.287663 -2.049903,1.503698 -0.544744,0.167255 -1.888036,0.280911 -2.289556,0.193719 z m 2.068372,-1.355305 c 0.368557,-0.302444 0.180468,-0.759973 -0.508358,-1.236611 -0.550238,-0.380741 -1.555495,-1.413067 -2.185592,-2.244446 -0.555482,-0.732928 -1.090347,-1.619102 -1.873628,-3.10425 -0.749633,-1.42135 -1.10806,-2.305326 -1.280957,-3.159165 -0.141631,-0.699443 -0.424317,-1.01918 -0.90107,-1.01918 -0.979892,0 -1.290241,1.348845 -0.758226,3.295413 0.360632,1.319511 0.743507,2.169396 1.629991,3.618162 l 0.759941,1.241961 1.373418,1.127287 c 1.699455,1.394896 2.151213,1.646423 2.957066,1.646423 0.451094,0 0.631979,-0.03803 0.787415,-0.165594 z"
       id="path2" />
    <path
       style="fill:#ffc92a;fill-opacity:1;stroke-width:0.0914003"
       d="M 34.721388,26.069307 C 33.856126,25.79712 33.443056,25.527576 33.149122,25.04334 32.725323,24.345161 30.707335,21.205744 30.556829,21.01047 30.485099,20.917405 30.050801,20.284003 29.591727,19.602916 29.132654,18.921829 28.394763,17.88021 27.951971,17.28821 26.77862,15.719473 26.46883,15.156933 26.46883,14.59502 c 0,-0.362877 0.05414,-0.52256 0.251699,-0.742297 0.285577,-0.31764 1.065172,-0.866518 1.481986,-1.043396 0.406394,-0.172457 1.337026,-0.228387 2.180533,-0.131051 0.604494,0.06977 0.874781,0.155921 1.512866,0.482281 0.993708,0.508249 1.378076,0.796921 2.230557,1.675197 2.149201,2.214239 3.897154,5.136355 4.31093,7.206739 0.37795,1.891122 -0.192488,3.281214 -1.583922,3.859826 -0.604893,0.251538 -1.612454,0.330452 -2.132091,0.166988 z m 2.132436,-0.843721 c 0.189604,-0.197806 0.209117,-0.329589 0.209117,-1.412484 0,-1.356687 -0.223372,-2.358019 -0.872326,-3.910512 -0.421446,-1.008219 -0.714443,-1.514314 -1.256505,-2.170367 -0.650133,-0.786845 -2.156036,-2.254654 -2.688501,-2.620491 -0.645853,-0.443739 -1.576386,-0.845625 -1.957976,-0.845625 -0.681645,0 -1.202735,0.459833 -0.978585,0.863544 0.06142,0.110641 0.399272,0.392636 0.750757,0.626656 0.914964,0.609188 1.565731,1.221993 2.224196,2.094454 0.728943,0.965845 1.68686,2.45838 2.013236,3.136831 0.368659,0.766346 0.917079,2.352217 1.102781,3.188912 0.089,0.400983 0.184712,0.794041 0.212701,0.873464 0.155155,0.44026 0.888029,0.543963 1.241105,0.175618 z"
       id="path3" />
  </g>
</svg>
