<?xml version="1.0" encoding="UTF-8" standalone="no"?>
<!-- Created with Inkscape (http://www.inkscape.org/) -->

<svg
   width="1080"
   height="1080"
   viewBox="0 0 1080 1080"
   version="1.1"
   id="svg1"
   xmlns="http://www.w3.org/2000/svg"
   xmlns:svg="http://www.w3.org/2000/svg">
  <defs
     id="defs1" />
  <g
     id="layer1">
    <path
       style="display:inline;fill:#000000;stroke-width:1.3788"
       d="m 377.94823,1073.8469 c -2.41353,-0.1891 -20.515,-0.8717 -40.22547,-1.5167 -32.32872,-1.0582 -53.0542,-2.7149 -82.30647,-6.5791 -5.4455,-0.7193 -11.70004,-1.3079 -13.89928,-1.3079 -7.09183,0 -32.77231,-7.2432 -50.6028,-14.2725 -21.49932,-8.4758 -44.24253,-20.0002 -55.69966,-28.2241 C 115.53154,1007.818 93.415302,976.50679 84.187822,949.70489 79.353272,935.66261 78.845597,932.6362 77.976113,912.6751 l -0.946858,-21.73771 4.708329,-12.99669 c 5.293059,-14.61078 16.375604,-32.10858 24.205206,-38.21664 6.59965,-5.14856 13.8043,-5.39501 21.52069,-0.73615 8.81872,5.32439 10.82206,10.30517 12.7877,31.79302 2.39275,26.15731 14.46372,71.45839 23.03271,86.43955 5.04782,8.82514 12.66472,17.70669 18.40465,21.46065 8.31509,5.43808 35.74865,12.98331 47.16504,12.97213 12.3406,-0.013 47.77954,-4.92691 49.29436,-6.83626 1.91326,-2.41192 -0.0161,-86.98202 -2.52807,-110.7753 -1.2072,-11.43709 -2.20903,-21.8182 -2.2263,-23.06913 -0.0175,-1.25093 -0.58583,-2.27442 -1.26336,-2.27442 -0.6774,0 -7.0952,6.14892 -14.26176,13.66427 -14.30273,14.99901 -28.25145,33.74063 -32.19472,43.25733 -3.63244,8.76606 -7.30423,11.96086 -13.74701,11.96086 -10.85023,0 -14.94027,-9.61194 -8.58017,-20.16412 6.37008,-10.56874 23.72629,-30.87413 38.95946,-45.57935 8.63342,-8.3343 18.2808,-17.78031 21.43871,-20.99114 l 5.74142,-5.8379 -1.82301,-11.87393 c -1.00272,-6.53067 -3.09268,-18.52926 -4.64451,-26.66355 -1.55168,-8.13429 -2.82134,-15.0063 -2.82134,-15.27111 0,-1.79292 -4.97216,0.95001 -20.27116,11.18284 -22.28695,14.90675 -38.36261,28.37634 -53.90366,45.16516 -7.62741,8.2398 -13.76002,13.66726 -16.00984,14.16897 -7.8135,1.74244 -13.77819,-4.17653 -11.68306,-11.59353 1.21885,-4.31482 38.6341,-36.42634 55.96126,-48.02857 8.13854,-5.44957 20.64501,-13.27348 27.79212,-17.38645 7.14712,-4.11298 13.3768,-7.97271 13.84386,-8.57717 1.53588,-1.98793 -12.44723,-62.0932 -14.44563,-62.0932 -0.48241,0 -9.79791,3.73637 -20.70106,8.30307 -10.90319,4.56669 -27.06457,10.94051 -35.91417,14.16406 -8.84961,3.22354 -21.00838,7.9675 -27.01952,10.54213 -6.01111,2.57461 -12.98513,4.68113 -15.49779,4.68113 -8.11981,0 -12.37464,-7.61073 -6.77299,-12.11499 4.398,-3.5364 32.28365,-14.62756 47.82755,-19.02279 12.22661,-3.45722 38.59978,-12.1357 51.56174,-16.96716 1.81015,-0.67471 3.29117,-1.72848 3.29117,-2.34174 0,-2.33342 -20.78062,-68.4911 -30.69321,-97.71557 -16.57961,-48.88032 -64.09008,-171.96759 -83.21122,-215.57863 -5.75796,-13.13261 -11.99669,-25.4906 -13.86385,-27.4622 -1.86715,-1.97161 -4.55273,-7.31016 -5.96793,-11.86344 -1.4152,-4.55327 -6.093894,-16.4666 -10.397102,-26.47404 -4.303209,-10.00746 -11.419079,-27.26056 -15.81305,-38.34024 -4.393983,-11.07968 -11.8666,-28.04036 -16.605846,-37.6904 l -8.616801,-17.54553 -0.275056,-14.52422 -0.275067,-14.52421 4.682226,-3.5006 c 4.300796,-3.21543 5.460616,-3.44824 14.237062,-2.85781 20.195643,1.35865 36.848704,8.24146 70.715044,29.22694 18.3035,11.34189 26.04576,18.43426 41.31514,37.84721 15.38825,19.56406 38.67948,51.13573 38.67948,52.4307 0,2.41591 4.17452,0.69598 8.85517,-3.64836 2.77248,-2.57327 11.29413,-8.64041 18.93698,-13.48254 7.64283,-4.84212 18.50372,-12.54441 24.13529,-17.11617 5.63156,-4.57176 12.54303,-9.81664 15.35881,-11.65529 8.38987,-5.47836 42.46099,-23.92826 52.21648,-28.2758 4.98606,-2.22201 13.1489,-6.38495 18.1395,-9.25095 14.83691,-8.52041 37.76777,-17.85289 51.05184,-20.77718 6.83833,-1.50536 17.04098,-4.14076 22.67255,-5.85643 13.63072,-4.15264 41.9891,-11.07081 45.48272,-11.09575 6.55778,-0.0468 7.1518,-1.80844 3.57027,-10.58764 -4.97158,-12.18625 -16.6965,-32.41528 -27.75017,-47.87756 -5.36563,-7.50559 -11.9398,-17.058184 -14.60931,-21.227989 -5.88184,-9.187451 -22.80639,-27.560857 -43.78272,-47.530855 -8.5632,-8.15242 -16.71713,-16.340334 -18.11976,-18.195365 -3.8653,-5.112104 -3.34647,-11.308315 1.16668,-13.935816 3.57027,-2.078482 4.39862,-1.993393 18.65,1.915517 8.20263,2.249844 18.92939,4.897426 23.83732,5.883536 8.95347,1.798976 21.5439,6.384792 47.37232,17.254301 16.3191,6.867684 24.62208,11.150015 51.21596,26.415211 10.86087,6.234265 24.33026,13.909746 29.93185,17.056634 24.50565,13.766847 53.83777,36.363666 95.86418,73.851946 41.18798,36.74032 57.33272,52.80417 73.8063,73.43701 26.78812,33.55146 60.21243,88.27045 77.06574,126.16445 3.17912,7.14818 9.64124,20.30732 14.36035,29.24255 12.68155,24.01208 28.49499,55.31718 32.99557,65.31994 2.17379,4.83139 4.49164,9.08049 5.15076,9.44245 1.76876,0.97126 20.15795,-24.43771 26.16251,-36.14974 3.79508,-7.40247 6.08604,-10.32458 8.52034,-10.86739 4.36103,-0.97256 7.67956,1.59816 7.67956,5.9491 0,6.66254 -13.49017,28.74279 -29.63843,48.51128 l -7.16745,8.77437 3.24261,8.77116 c 1.78338,4.82415 3.44388,8.98075 3.69007,9.23689 0.24618,0.25615 8.54946,-3.6117 18.45165,-8.59519 39.07268,-19.66423 63.24528,-29.88435 81.8584,-34.60958 16.47051,-4.18128 26.10429,-1.88556 26.10429,6.2206 0,5.20191 -3.78821,8.57558 -9.62953,8.57558 -6.15903,0 -43.05414,11.6225 -57.65672,18.16278 -16.92717,7.58141 -47.22032,22.87176 -50.88099,25.68195 -2.80832,2.15578 -2.8645,2.65304 -0.93704,8.28028 l 2.05077,5.98676 14.27873,-8e-4 c 12.84056,-7.1e-4 16.85696,0.66536 39.87676,6.61308 32.82941,8.48225 36.73917,9.22551 55.29849,10.51249 14.81643,1.02746 15.59519,1.23355 19.56028,5.17649 5.0288,5.00088 5.1942,8.01944 0.6933,12.66862 -7.68203,7.93526 -29.64689,4.96739 -78.75752,-10.64167 -24.98661,-7.94163 -38.1538,-10.79685 -42.67778,-9.25442 -1.804,0.6151 -1.60273,2.5512 1.33388,12.83192 9.39199,32.88087 12.50471,47.19926 21.70333,99.83517 9.39302,53.74761 9.93291,58.33498 10.70582,90.97683 0.95021,40.13442 -0.91947,55.9072 -16.56251,139.7144 -5.24408,28.09498 -17.3458,56.93912 -32.19238,76.72956 -22.92369,30.5573 -38.88545,45.4905 -60.8847,56.9615 -16.63915,8.6761 -26.98603,12.5755 -49.05679,18.4878 -9.41935,2.5233 -22.72112,6.2645 -29.55945,8.3141 -13.67652,4.0989 -25.82095,6.3569 -55.5843,10.3351 -54.42068,7.274 -71.31904,9.1961 -92.15291,10.482 -12.4699,0.7696 -34.52078,2.5862 -49.00195,4.0366 -41.87385,4.1943 -73.95082,6.3777 -103.85487,7.0692 -15.28569,0.3535 -31.08334,0.7759 -35.10588,0.9387 -4.02255,0.1629 -9.28843,0.1414 -11.70196,-0.048 z M 620.22352,931.19718 c 38.69282,-3.41908 56.98839,-5.67585 73.35518,-9.04838 18.9544,-3.90577 54.59431,-13.95058 64.68316,-18.23045 12.33372,-5.23215 43.52003,-22.86959 49.99384,-28.27404 6.73564,-5.62304 13.23886,-17.32086 15.00439,-26.98987 1.86325,-10.20388 1.92937,-56.52651 0.1068,-75.33709 -0.72699,-7.50558 -2.39305,-27.39051 -3.70236,-44.18874 -3.0741,-39.44191 -11.15357,-92.1644 -16.18131,-105.59144 -2.07301,-5.53619 -7.02265,-14.49406 -10.99912,-19.9064 -5.90305,-8.03436 -8.45948,-10.32379 -13.92825,-12.47317 -9.20432,-3.61762 -15.0455,-2.45702 -22.60204,4.49084 -6.76242,6.21777 -19.96574,29.51918 -24.65675,43.51453 -3.78559,11.2941 -3.90408,25.44036 -0.68091,81.26095 1.37848,23.87483 2.05296,51.1536 1.64047,66.34341 -0.62635,23.05899 -1.00667,26.16253 -3.58359,29.24256 -4.22967,5.05546 -12.18115,5.41633 -16.32057,0.74068 -1.73116,-1.95546 -3.09327,-5.38437 -3.09327,-7.78694 0,-2.3611 -0.92519,-7.98453 -2.05589,-12.49651 -1.13084,-4.51197 -3.17093,-18.14604 -4.53363,-30.29794 -2.60456,-23.22691 -9.68717,-65.60469 -13.35866,-79.92964 -5.5754,-21.75399 -14.06897,-41.9563 -18.79641,-44.7085 -5.08684,-2.9615 -13.88262,-3.83697 -21.12949,-2.10314 -8.02667,1.92039 -21.20059,12.67538 -23.67658,19.32916 -2.4931,6.69999 -2.27998,17.88476 0.68471,35.93033 6.45173,39.26932 7.2125,48.92318 7.37443,93.57616 0.15812,43.6278 0.11697,44.26578 -3.20458,50.25784 -3.72196,6.7131 -9.58054,9.62804 -15.40007,7.66217 -6.99368,-2.36258 -8.57008,-6.83588 -11.93717,-33.87614 -2.85937,-22.96337 -8.75716,-55.09673 -12.02888,-65.53831 -1.58386,-5.05527 -4.93442,-10.63945 -9.74729,-16.24586 -11.21019,-13.05846 -24.54296,-26.63711 -27.12163,-27.62158 -3.70016,-1.41269 -21.65272,-1.19485 -28.54122,0.3463 -8.28864,1.85442 -17.38004,10.20744 -26.57675,24.41818 l -7.044,10.88438 0.33452,18.35817 c 0.18387,10.09699 0.93252,23.91424 1.66358,30.70501 0.73109,6.79077 2.06102,20.8272 2.9552,31.19206 0.89416,10.36486 2.25759,23.52401 3.02977,29.24255 0.77219,5.71855 1.40322,16.29682 1.40219,23.50728 -10e-4,7.21046 0.98165,18.90747 2.18359,25.99338 1.20208,7.0859 2.18943,17.16206 2.19412,22.39148 0.0147,15.59725 -2.91466,14.53581 40.11094,14.53581 28.85542,0 45.30032,-0.7269 74.18281,-3.27909 z M 516.18653,648.62001 c 13.29006,-3.6933 21.78261,-8.41712 33.59516,-18.68674 17.90954,-15.57009 22.81223,-28.617 21.57519,-57.41476 -0.97112,-22.6052 -7.24659,-48.48158 -17.96573,-74.08113 -4.48975,-10.72226 -9.10954,-22.21178 -10.26613,-25.53223 -3.34164,-9.59303 -20.51148,-38.21217 -31.85565,-53.09773 -14.33285,-18.80713 -32.60225,-34.76659 -54.29124,-47.42662 -25.23483,-14.72978 -36.75072,-18.58193 -60.31262,-20.17511 -17.43138,-1.17866 -19.48478,-1.07268 -27.45791,1.4172 -4.73959,1.48012 -10.96517,3.76436 -13.8345,5.07609 -7.15019,3.26871 -18.01325,12.80535 -22.4107,19.67436 -3.51806,5.49525 -4.72599,8.44878 -11.24324,27.48993 -3.65555,10.68009 -3.89822,23.75075 -0.72084,38.8192 4.32649,20.51801 17.97186,58.17044 29.75646,82.10813 13.84167,28.11643 45.27503,83.88604 52.24807,92.69932 8.68417,10.97595 17.99382,17.96805 26.49251,19.89741 3.82947,0.86936 9.87543,2.49664 13.43545,3.61613 3.56003,1.11951 13.43356,3.70611 21.94117,5.74806 13.22541,3.17426 17.37858,3.62528 28.64201,3.11043 7.24542,-0.33119 17.44806,-1.79007 22.67254,-3.24194 z m -35.06667,-29.63833 c -10.61382,-5.50714 -54.6496,-42.8643 -65.27543,-55.37553 -5.87291,-6.91495 -16.85944,-25.71108 -31.25475,-53.47174 -9.25333,-17.84452 -13.86361,-31.3086 -22.25142,-64.98345 -2.36131,-9.48038 -2.76736,-14.65253 -2.14263,-27.29305 0.90486,-18.3053 2.63074,-24.45436 8.27021,-29.46504 3.30858,-2.93974 5.44901,-3.67652 10.68111,-3.67652 5.63902,0 7.16072,0.62479 11.01096,4.52106 2.45712,2.48657 4.83072,6.43433 5.27451,8.77277 0.4438,2.33844 1.49771,8.34566 2.34185,13.34939 2.37213,14.06035 11.0035,37.04755 21.96048,58.4851 5.48018,10.72227 12.92277,25.82294 16.53882,33.55706 16.34515,34.9585 52.76837,81.58991 73.12875,93.62428 8.12394,4.80178 12.10963,15.20323 8.2689,21.57948 -1.96593,3.26395 -9.12782,5.24994 -18.93245,5.24994 -6.86028,0 -9.78503,-0.80903 -17.61891,-4.87375 z m 166.70478,-42.71539 v -11.19842 l -5.56984,4.37516 c -3.06343,2.40634 -8.65842,6.26387 -12.43333,8.57229 -11.22643,6.86521 -9.16162,8.71364 10.32375,9.24139 l 7.67942,0.20799 z m 107.29744,-18.41406 c 13.08045,-5.43868 21.85516,-13.00249 28.05399,-24.18269 10.08386,-18.18704 11.65265,-39.04576 5.24027,-69.67338 -7.99199,-38.17179 -38.21523,-94.65698 -73.55412,-137.46764 -12.31499,-14.91868 -28.90324,-32.4659 -36.20936,-38.3024 -8.93356,-7.13658 -34.84668,-21.1763 -43.17965,-23.39467 -3.40292,-0.90595 -14.66533,-1.59112 -26.41131,-1.6068 -18.23691,-0.0243 -21.26626,0.29546 -27.67557,2.92177 -11.54077,4.72891 -30.66615,19.7646 -35.32704,27.77277 -3.36387,5.77998 -3.04954,18.64861 0.69422,28.41306 3.62249,9.44796 7.64781,15.86722 29.33929,46.78808 8.27402,11.79449 21.76755,32.5567 29.98553,46.13824 8.21814,13.58155 17.79854,28.78767 21.28997,33.7914 3.49142,5.00373 14.51467,23.42653 24.49614,40.93956 9.98148,17.51305 19.03192,32.71917 20.11231,33.7914 1.08037,1.07223 4.72159,7.05662 8.09175,13.29868 l 6.12744,11.34918 12.58092,6.09327 c 15.74294,7.62481 18.49758,8.24744 34.14134,7.71706 10.44575,-0.35416 14.36913,-1.1293 22.20388,-4.38689 z m -16.25417,-13.69929 c -5.47724,-2.70276 -7.59135,-6.66606 -9.25171,-17.34421 -2.81023,-18.07397 -10.4105,-44.73944 -19.08633,-66.96477 -9.16556,-23.47988 -14.44592,-33.53394 -31.88813,-60.71581 -23.20278,-36.15918 -35.2245,-50.52068 -51.55503,-61.58893 -18.53194,-12.56039 -24.60716,-18.24752 -24.60716,-23.03552 0,-3.13596 1.31822,-5.31595 5.16188,-8.53692 9.80389,-8.21542 20.13292,-7.15046 40.39487,4.16484 14.33036,8.00279 25.70846,18.09828 47.4409,42.09302 24.36113,26.89711 35.80229,43.45661 40.90405,59.20288 1.37746,4.25153 3.69342,9.82307 5.14637,12.38118 3.23121,5.68849 8.3887,22.01854 14.40073,45.59717 4.11557,16.14041 4.52763,19.79972 4.52763,40.20433 0,19.84625 -0.34155,23.0746 -2.94699,27.85687 -4.15976,7.63491 -11.43194,10.2432 -18.64108,6.68587 z"
       id="path1" />
    <path
       style="fill:#ffc92a;fill-opacity:1;stroke-width:1.93139"
       d="m 474.61566,650.0884 c -27.20748,-6.39692 -48.49625,-12.8043 -54.51717,-16.40821 -11.10123,-6.64485 -18.59571,-17.15082 -42.03932,-58.93178 -30.49404,-54.34623 -46.59507,-91.55191 -54.99317,-127.0764 -4.69126,-19.84437 -4.00616,-30.68324 3.20342,-50.6809 5.39844,-14.97397 7.87295,-19.04747 16.48616,-27.13934 14.35672,-13.48774 28.6873,-18.10636 51.5602,-16.61737 9.22981,0.60085 21.39167,2.33201 27.02637,3.84703 27.16929,7.30511 69.69593,38.27817 90.25962,65.738 22.48005,30.01879 45.32542,80.20286 54.25681,119.18495 3.3835,14.76766 4.21572,23.87793 3.6587,40.05205 -0.65922,19.14229 -1.23992,21.77372 -6.77678,30.70915 -8.05143,12.99347 -27.33993,28.31315 -41.62898,33.06333 -11.06255,3.67759 -38.34185,6.17666 -46.49586,4.25949 z m 42.0041,-29.80046 c 7.48455,-6.65013 3.66492,-16.7103 -10.32365,-27.19061 -11.17412,-8.37172 -31.58867,-31.07054 -44.38455,-49.35089 -11.28061,-16.11562 -22.14257,-35.60082 -38.04925,-68.25628 -15.22337,-31.25265 -22.50226,-50.68951 -26.01341,-69.46373 -2.87622,-15.37934 -8.61693,-22.40973 -18.29876,-22.40973 -19.89941,0 -26.20192,29.6584 -15.39789,72.45958 7.32366,29.0134 15.09901,47.70065 33.10153,79.55617 l 15.43271,27.30823 27.89112,24.7868 c 34.51215,30.67095 43.68636,36.20155 60.05146,36.20155 9.16076,0 12.83411,-0.83644 15.99069,-3.64109 z"
       id="path2" />
    <path
       style="fill:#ffc92a;fill-opacity:1;stroke-width:1.93139"
       d="m 712.89677,559.40033 c -17.57158,-5.98487 -25.96011,-11.91161 -31.92925,-22.55898 -8.60642,-15.35158 -49.58734,-84.38106 -52.64379,-88.67477 -1.4567,-2.04636 -10.27628,-15.97357 -19.59905,-30.94932 -9.32278,-14.97574 -24.30772,-37.87885 -33.29985,-50.89576 -23.82817,-34.49341 -30.11934,-46.86251 -30.11934,-59.21789 0,-7.97892 1.0996,-11.49005 5.11146,-16.32161 5.79942,-6.98429 21.63129,-19.05301 30.09588,-22.94222 8.25297,-3.79197 27.15204,-5.02178 44.2818,-2.88153 12.27595,1.53381 17.7649,3.42838 30.72298,10.60439 20.17999,11.17541 27.98569,17.52269 45.2977,36.83426 43.64553,48.68668 79.1426,112.93819 87.54549,158.4618 7.67531,41.58202 -3.90904,72.14738 -32.16597,84.8699 -12.28403,5.53081 -32.74539,7.26596 -43.29806,3.67173 z m 43.30505,-18.55174 c 3.85047,-4.34935 4.24669,-7.24701 4.24669,-31.05771 0,-29.83084 -4.53615,-51.84813 -17.715,-85.98439 -8.55861,-22.16872 -14.50874,-33.29672 -25.51685,-47.72202 -13.20275,-17.30117 -43.78433,-49.57537 -54.5975,-57.61936 -13.11585,-9.75695 -32.01293,-18.59361 -39.76221,-18.59361 -13.84268,0 -24.42491,10.11081 -19.87289,18.98759 1.24754,2.43277 8.10834,8.63328 15.24622,13.77894 18.58092,13.39482 31.79653,26.86917 45.16851,46.05286 14.80323,21.23699 34.25644,54.05486 40.88441,68.97264 7.48663,16.85043 18.62387,51.72058 22.39504,70.11781 1.80731,8.81682 3.7511,17.4594 4.3195,19.20574 3.15083,9.68045 18.0339,11.96067 25.20408,3.86151 z"
       id="path3" />
  </g>
</svg>
